<svg width="38" height="38" viewBox="0 0 38 38" fill="none" xmlns="http://www.w3.org/2000/svg">
<path d="M18.9999 0C15.2421 0 11.5686 1.11433 8.44411 3.20208C5.31958 5.28982 2.8843 8.25722 1.44624 11.729C0.0081714 15.2008 -0.368092 19.0211 0.365027 22.7067C1.09815 26.3924 2.90772 29.7778 5.56492 32.435C8.22212 35.0922 11.6076 36.9018 15.2932 37.6349C18.9789 38.368 22.7991 37.9918 26.2709 36.5537C29.7427 35.1156 32.7101 32.6804 34.7979 29.5558C36.8856 26.4313 37.9999 22.7578 37.9999 19C37.9943 13.9626 35.9907 9.13319 32.4287 5.57122C28.8668 2.00925 24.0373 0.00565751 18.9999 0V0ZM18.9999 34.8333C15.8684 34.8333 12.8072 33.9047 10.2034 32.1649C7.59964 30.4251 5.57024 27.9523 4.37185 25.0592C3.17347 22.166 2.85991 18.9824 3.47085 15.9111C4.08178 12.8397 5.58976 10.0185 7.80409 7.80414C10.0184 5.58981 12.8397 4.08183 15.911 3.4709C18.9824 2.85997 22.1659 3.17352 25.0591 4.37191C27.9523 5.5703 30.4251 7.59969 32.1649 10.2035C33.9047 12.8073 34.8333 15.8685 34.8333 19C34.8285 23.1978 33.1588 27.2223 30.1905 30.1906C27.2222 33.1589 23.1977 34.8286 18.9999 34.8333Z" fill="#030925"/>
<path d="M21.375 11.0834H15.8333C15.4134 11.0834 15.0107 11.2502 14.7137 11.5471C14.4168 11.8441 14.25 12.2468 14.25 12.6667V28.5H17.4167V22.1667H21.375C22.8447 22.1667 24.2543 21.5829 25.2935 20.5436C26.3328 19.5043 26.9167 18.0948 26.9167 16.625C26.9167 15.1553 26.3328 13.7458 25.2935 12.7065C24.2543 11.6672 22.8447 11.0834 21.375 11.0834ZM21.375 19H17.4167V14.25H21.375C22.0049 14.25 22.609 14.5003 23.0544 14.9457C23.4998 15.3911 23.75 15.9951 23.75 16.625C23.75 17.2549 23.4998 17.859 23.0544 18.3044C22.609 18.7498 22.0049 19 21.375 19Z" fill="#030925"/>
</svg>
